<svg width="550" height="364" viewBox="0 0 550 364" fill="none" xmlns="http://www.w3.org/2000/svg">
<rect width="550" height="364" rx="17" fill="#FA3E88"/>
<path d="M550 345.803V347C550 356.389 542.389 364 533 364H17C7.61114 364 0 356.389 0 347V345.471L274 93L550 345.803Z" fill="#FE83AB"/>
<path d="M550 17.4312L334.415 215.169C299.658 247.049 246.304 247.09 211.497 215.264L0 21.8776V17C0 7.61115 7.61116 0 17 0H533C542.389 0 550 7.61115 550 17V17.4312Z" fill="#FF6296"/>
<path d="M21.8182 0H533C542.389 0 550 7.61115 550 17V17.4312L334.415 215.169C329.131 220.016 323.417 224.126 317.404 227.501C292.024 230.436 265.651 222.692 245.497 204.264L34 10.8774L21.8182 0Z" fill="#FE83AB"/>
<path d="M304.818 88.5468C291.218 85.7468 279.818 94.3801 275.818 99.0468C271.318 94.0468 259.902 86.2796 248.818 88.5468C226.818 93.0468 219.287 106.2 221.318 119.547C224.818 142.547 266.318 178.047 271.318 180.547C276.318 183.047 277.597 182.387 280.818 180.547C284.318 178.547 329.818 135.047 329.818 119.547C329.818 104.047 321.818 92.0468 304.818 88.5468Z" fill="#74C9E5"/>
<path d="M292.228 170.127C306.779 155.784 329.818 130.576 329.818 119.547C329.818 104.047 321.818 92.0468 304.818 88.5468C291.218 85.7468 279.818 94.3801 275.818 99.0468C271.318 94.0468 259.902 86.2796 248.818 88.5468C246.796 88.9604 244.895 89.4473 243.114 90.0006C239.483 95.2513 238.379 101.378 239.318 107.547C242.818 130.547 284.318 166.047 289.318 168.547C290.22 168.998 291.107 169.497 291.953 169.973C292.045 170.025 292.137 170.076 292.228 170.127Z" fill="#88E3F2"/>
</svg>
